<svg id="Capa_1" enable-background="new 0 0 512 512" height="512" viewBox="0 0 512 512" width="512" xmlns="http://www.w3.org/2000/svg"><g><path d="m331 91c0-33.472-18.604-64.574-48.545-79.545l-19.746-9.873c-4.219-2.109-9.199-2.109-13.418 0l-19.746 9.873c-29.941 14.971-48.545 46.073-48.545 79.545v60h150z"/><path d="m256 301c41.367 0 75-33.647 75-75v-45h-150v45c0 41.353 33.633 75 75 75z"/><path d="m15 512h61v-145.155l-73.861 122.435c-2.783 4.644-2.842 10.415-.205 15.117 2.666 4.703 7.675 7.603 13.066 7.603z"/><path d="m510.066 504.397c2.637-4.702 2.578-10.474-.205-15.117l-73.861-122.435v145.155h61c5.391 0 10.4-2.9 13.066-7.603z"/><path d="m211 301h90v30h-90z"/><path d="m406 316c0-8.286-6.716-15-15-15h-60v45c0 8.291-6.709 15-15 15h-120c-8.291 0-15-6.709-15-15v-45h-60c-8.284 0-15 6.714-15 15v196h300z"/></g></svg>