<svg height="464pt" viewBox="0 0 464 464" width="464pt" xmlns="http://www.w3.org/2000/svg"><path d="m240 96h176v16h-176zm0 0"/><path d="m240 64h176v16h-176zm0 0"/><path d="m224 70.945312-25.574219 17.054688 25.574219 17.054688zm0 0"/><path d="m232 176h136v-48h-138.425781l-60-40 60-40h138.425781v-16h-352v179.65625l46.953125 44.34375h241.046875v-32h-72v-16h72v-8c0-2.824219.574219-5.480469 1.472656-8h-73.472656zm0-32h120v16h-120zm-138.542969 83.625-41.304687-51.625h-20.152344v-16h27.839844l22.703125 28.375 14.449219-108.375h55.007812v16h-41zm120.199219-25.28125-11.3125 11.3125-34.34375-34.34375-34.34375 34.34375-11.3125-11.3125 34.34375-34.34375-34.34375-34.34375 11.3125-11.3125 34.34375 34.34375 34.34375-34.34375 11.3125 11.3125-34.34375 34.34375zm0 0"/><path d="m448 64h-16v48h16c8.824219 0 16-7.175781 16-16v-16c0-8.816406-7.175781-16-16-16zm0 0"/><path d="m456 192h-128c-4.40625 0-8 3.585938-8 8v208c0 4.414062 3.59375 8 8 8h128c4.40625 0 8-3.585938 8-8v-208c0-4.414062-3.59375-8-8-8zm-72 208h-48v-16h48zm0-32h-48v-16h48zm0-48h-16v16h-16v-16h-16v-16h16v-16h16v16h16zm61.65625 66.34375-11.3125 11.3125-10.34375-10.34375-10.34375 10.34375-11.3125-11.3125 10.34375-10.34375-10.34375-10.34375 11.3125-11.3125 10.34375 10.34375 10.34375-10.34375 11.3125 11.3125-10.34375 10.34375zm2.34375-66.34375h-48v-16h48zm0-48h-112v-64h112zm0 0"/><path d="m0 272h16v16h-16v16h16v16h-16v16h16v16h-16v16h16v16h-16v16h16v16h-16v16h16v16h-16v16h259.878906l-259.878906-245.441406zm48 57.921875 91.144531 86.078125h-91.144531zm0 0"/><path d="m0 0h384.007812v16h-384.007812zm0 0"/><path d="m352 224h80v32h-80zm0 0"/></svg>