<svg id="Capa_1" enable-background="new 0 0 512 512" height="512" viewBox="0 0 512 512" width="512" xmlns="http://www.w3.org/2000/svg"><g><path d="m220.183 360.868c16.322 0 29.602-11.328 29.602-25.251v-63.372l56.634-5.841v39.874c-4.312-2.096-9.294-3.299-14.602-3.299-16.322 0-29.601 11.328-29.601 25.251s13.279 25.251 29.601 25.251 29.602-11.328 29.602-25.251v-64.597c0-3.532-1.504-6.915-4.127-9.281-2.622-2.366-6.139-3.514-9.656-3.153l-61.633 6.356c-6.395.659-11.218 6.004-11.218 12.434v43.676c-4.312-2.096-9.294-3.299-14.602-3.299-16.322 0-29.601 11.328-29.601 25.251s13.279 25.251 29.601 25.251zm71.634-22.388c-7.915 0-14.601-4.694-14.601-10.251s6.687-10.251 14.601-10.251c7.915 0 14.602 4.695 14.602 10.251s-6.687 10.251-14.602 10.251zm-71.634-13.115c7.915 0 14.602 4.694 14.602 10.251s-6.687 10.251-14.602 10.251-14.601-4.695-14.601-10.251 6.687-10.251 14.601-10.251z"/><path d="m111.185 64.96h289.63c4.142 0 7.5-3.358 7.5-7.5s-3.358-7.5-7.5-7.5h-289.63c-4.142 0-7.5 3.358-7.5 7.5 0 4.143 3.358 7.5 7.5 7.5z"/><path d="m325.202 95.924h-138.404c-4.142 0-7.5 3.358-7.5 7.5s3.358 7.5 7.5 7.5h138.403c4.142 0 7.5-3.358 7.5-7.5.001-4.142-3.357-7.5-7.499-7.5z"/><path d="m0 494.5c0 9.649 7.851 17.5 17.5 17.5h477c9.649 0 17.5-7.851 17.5-17.5v-477c0-9.649-7.851-17.5-17.5-17.5h-477c-9.649 0-17.5 7.851-17.5 17.5zm445.987-189.309v-29.669h51.013v29.669zm-51.479 43.979v76.69h-13.134l-49.226-266.995h15.48c3.423 0 6.811-.15 10.163-.429v60.04c0 31.456 25.591 57.047 57.047 57.047h16.149v30.322c-20.688 3.57-36.479 21.633-36.479 43.325zm102.492-331.67v243.022h-18.007v-52.378c0-4.142-3.358-7.5-7.5-7.5s-7.5 3.358-7.5 7.5v52.378h-49.155c-23.185 0-42.047-18.862-42.047-42.047v-62.241c54.886-11.618 96.202-60.439 96.202-118.734v-22.5h25.507c1.378 0 2.5 1.122 2.5 2.5zm-332.628 126.365c-58.65 0-106.365-47.715-106.365-106.365v-22.5h395.986v22.5c0 58.65-47.715 106.365-106.365 106.365zm-149.372-126.365c0-1.378 1.122-2.5 2.5-2.5h25.507v22.5c0 58.295 41.316 107.116 96.202 118.734v62.241c0 23.185-18.862 42.047-42.047 42.047h-49.155v-52.378c0-4.142-3.358-7.5-7.5-7.5s-7.5 3.358-7.5 7.5v52.378h-18.007zm51.013 287.691h-51.013v-29.669h51.013zm-51.013 189.309v-174.309h18.007v52.378c0 4.142 3.358 7.5 7.5 7.5s7.5-3.358 7.5-7.5v-52.378h25.506c15.979 0 28.979 13 28.979 28.979v14.556c0 4.142 3.358 7.5 7.5 7.5s7.5-3.358 7.5-7.5v-14.556c0-21.692-15.791-39.755-36.479-43.326v-30.322h16.149c31.456 0 57.047-25.591 57.047-57.047v-60.04c3.352.279 6.74.429 10.163.429h15.48l-5.018 27.219c-.751 4.074 1.942 7.984 6.016 8.735.46.085.917.126 1.368.126 3.548 0 6.701-2.528 7.367-6.142l5.52-29.939h121.792l49.226 266.995h-26.639c-4.142 0-7.5 3.358-7.5 7.5s3.358 7.5 7.5 7.5h35.606c.011 0 .022.001.033.001s.021-.001.032-.001h19.354v56.142h-277.017v-56.141h19.354c.011 0 .021.001.032.001s.022-.001.033-.001h169.885c4.142 0 7.5-3.358 7.5-7.5s-3.358-7.5-7.5-7.5h-160.917l37.773-204.876c.751-4.073-1.942-7.984-6.016-8.735-4.074-.753-7.985 1.942-8.735 6.016l-38.275 207.596h-13.134v-29.448c0-4.142-3.358-7.5-7.5-7.5s-7.5 3.358-7.5 7.5v100.588h-84.992c-1.378 0-2.5-1.122-2.5-2.5zm482 0c0 1.378-1.122 2.5-2.5 2.5h-84.992v-147.83c0-15.979 13-28.979 28.979-28.979h25.506v52.378c0 4.142 3.358 7.5 7.5 7.5s7.5-3.358 7.5-7.5v-52.378h18.007z"/></g></svg>